<mxfile host="app.diagrams.net" modified="2022-08-19T19:13:47.109Z" agent="5.0 (X11; Linux x86_64) AppleWebKit/537.36 (KHTML, like Gecko) Chrome/103.0.0.0 Safari/537.36" etag="dm8_GstBjJXY8WKkYt2H" version="20.2.4" type="github" pages="2">
  <diagram id="JnZxfOJPNqkmQjVvFdLZ" name="Use case diagram">
    <mxGraphModel dx="868" dy="627" grid="1" gridSize="10" guides="1" tooltips="1" connect="1" arrows="1" fold="1" page="1" pageScale="1" pageWidth="850" pageHeight="1100" math="0" shadow="0">
      <root>
        <mxCell id="0" />
        <mxCell id="1" parent="0" />
        <mxCell id="DW18cme_nGdW0s91hkWa-20" style="edgeStyle=none;rounded=0;orthogonalLoop=1;jettySize=auto;html=1;entryX=1;entryY=0.5;entryDx=0;entryDy=0;endArrow=none;endFill=0;" edge="1" parent="1" source="DW18cme_nGdW0s91hkWa-1" target="DW18cme_nGdW0s91hkWa-6">
          <mxGeometry relative="1" as="geometry" />
        </mxCell>
        <mxCell id="DW18cme_nGdW0s91hkWa-21" style="edgeStyle=none;rounded=0;orthogonalLoop=1;jettySize=auto;html=1;entryX=0.967;entryY=0.78;entryDx=0;entryDy=0;entryPerimeter=0;endArrow=none;endFill=0;" edge="1" parent="1" source="DW18cme_nGdW0s91hkWa-1" target="DW18cme_nGdW0s91hkWa-7">
          <mxGeometry relative="1" as="geometry" />
        </mxCell>
        <mxCell id="DW18cme_nGdW0s91hkWa-28" style="edgeStyle=none;rounded=0;orthogonalLoop=1;jettySize=auto;html=1;entryX=1;entryY=0.5;entryDx=0;entryDy=0;endArrow=none;endFill=0;" edge="1" parent="1" source="DW18cme_nGdW0s91hkWa-1" target="DW18cme_nGdW0s91hkWa-26">
          <mxGeometry relative="1" as="geometry" />
        </mxCell>
        <mxCell id="DW18cme_nGdW0s91hkWa-29" style="edgeStyle=none;rounded=0;orthogonalLoop=1;jettySize=auto;html=1;entryX=1;entryY=0.5;entryDx=0;entryDy=0;endArrow=none;endFill=0;" edge="1" parent="1" source="DW18cme_nGdW0s91hkWa-1" target="DW18cme_nGdW0s91hkWa-27">
          <mxGeometry relative="1" as="geometry" />
        </mxCell>
        <mxCell id="DW18cme_nGdW0s91hkWa-36" style="edgeStyle=none;rounded=0;orthogonalLoop=1;jettySize=auto;html=1;entryX=1;entryY=0.5;entryDx=0;entryDy=0;endArrow=none;endFill=0;" edge="1" parent="1" source="DW18cme_nGdW0s91hkWa-1" target="DW18cme_nGdW0s91hkWa-32">
          <mxGeometry relative="1" as="geometry" />
        </mxCell>
        <mxCell id="DW18cme_nGdW0s91hkWa-37" style="edgeStyle=none;rounded=0;orthogonalLoop=1;jettySize=auto;html=1;entryX=1;entryY=0.5;entryDx=0;entryDy=0;endArrow=none;endFill=0;" edge="1" parent="1" source="DW18cme_nGdW0s91hkWa-1" target="DW18cme_nGdW0s91hkWa-33">
          <mxGeometry relative="1" as="geometry" />
        </mxCell>
        <mxCell id="DW18cme_nGdW0s91hkWa-38" style="edgeStyle=none;rounded=0;orthogonalLoop=1;jettySize=auto;html=1;entryX=1;entryY=0.5;entryDx=0;entryDy=0;endArrow=none;endFill=0;" edge="1" parent="1" source="DW18cme_nGdW0s91hkWa-1" target="DW18cme_nGdW0s91hkWa-34">
          <mxGeometry relative="1" as="geometry" />
        </mxCell>
        <mxCell id="DW18cme_nGdW0s91hkWa-39" style="edgeStyle=none;rounded=0;orthogonalLoop=1;jettySize=auto;html=1;entryX=1;entryY=0.5;entryDx=0;entryDy=0;endArrow=none;endFill=0;" edge="1" parent="1" source="DW18cme_nGdW0s91hkWa-1" target="DW18cme_nGdW0s91hkWa-35">
          <mxGeometry relative="1" as="geometry" />
        </mxCell>
        <mxCell id="DW18cme_nGdW0s91hkWa-1" value="Admin" style="shape=umlActor;verticalLabelPosition=bottom;verticalAlign=top;html=1;outlineConnect=0;" vertex="1" parent="1">
          <mxGeometry x="681.66" y="440" width="30" height="60" as="geometry" />
        </mxCell>
        <mxCell id="DW18cme_nGdW0s91hkWa-14" style="rounded=0;orthogonalLoop=1;jettySize=auto;html=1;entryX=0;entryY=0.5;entryDx=0;entryDy=0;endArrow=none;endFill=0;" edge="1" parent="1" source="DW18cme_nGdW0s91hkWa-2" target="DW18cme_nGdW0s91hkWa-6">
          <mxGeometry relative="1" as="geometry" />
        </mxCell>
        <mxCell id="DW18cme_nGdW0s91hkWa-15" style="edgeStyle=none;rounded=0;orthogonalLoop=1;jettySize=auto;html=1;entryX=0;entryY=0.5;entryDx=0;entryDy=0;endArrow=none;endFill=0;" edge="1" parent="1" source="DW18cme_nGdW0s91hkWa-2" target="DW18cme_nGdW0s91hkWa-7">
          <mxGeometry relative="1" as="geometry" />
        </mxCell>
        <mxCell id="DW18cme_nGdW0s91hkWa-16" style="edgeStyle=none;rounded=0;orthogonalLoop=1;jettySize=auto;html=1;entryX=0.018;entryY=0.36;entryDx=0;entryDy=0;entryPerimeter=0;endArrow=none;endFill=0;" edge="1" parent="1" source="DW18cme_nGdW0s91hkWa-2" target="DW18cme_nGdW0s91hkWa-9">
          <mxGeometry relative="1" as="geometry" />
        </mxCell>
        <mxCell id="DW18cme_nGdW0s91hkWa-17" style="edgeStyle=none;rounded=0;orthogonalLoop=1;jettySize=auto;html=1;entryX=0.018;entryY=0.38;entryDx=0;entryDy=0;entryPerimeter=0;endArrow=none;endFill=0;" edge="1" parent="1" source="DW18cme_nGdW0s91hkWa-2" target="DW18cme_nGdW0s91hkWa-8">
          <mxGeometry relative="1" as="geometry" />
        </mxCell>
        <mxCell id="DW18cme_nGdW0s91hkWa-18" style="edgeStyle=none;rounded=0;orthogonalLoop=1;jettySize=auto;html=1;entryX=0;entryY=0.5;entryDx=0;entryDy=0;endArrow=none;endFill=0;" edge="1" parent="1" source="DW18cme_nGdW0s91hkWa-2" target="DW18cme_nGdW0s91hkWa-10">
          <mxGeometry relative="1" as="geometry" />
        </mxCell>
        <mxCell id="DW18cme_nGdW0s91hkWa-2" value="Student" style="shape=umlActor;verticalLabelPosition=bottom;verticalAlign=top;html=1;outlineConnect=0;" vertex="1" parent="1">
          <mxGeometry x="130" y="150" width="30" height="60" as="geometry" />
        </mxCell>
        <mxCell id="DW18cme_nGdW0s91hkWa-19" style="edgeStyle=none;rounded=0;orthogonalLoop=1;jettySize=auto;html=1;entryX=0;entryY=1;entryDx=0;entryDy=0;endArrow=none;endFill=0;" edge="1" parent="1" source="DW18cme_nGdW0s91hkWa-3" target="DW18cme_nGdW0s91hkWa-6">
          <mxGeometry relative="1" as="geometry" />
        </mxCell>
        <mxCell id="DW18cme_nGdW0s91hkWa-22" style="edgeStyle=none;rounded=0;orthogonalLoop=1;jettySize=auto;html=1;entryX=0.5;entryY=1;entryDx=0;entryDy=0;endArrow=none;endFill=0;" edge="1" parent="1" source="DW18cme_nGdW0s91hkWa-3" target="DW18cme_nGdW0s91hkWa-7">
          <mxGeometry relative="1" as="geometry" />
        </mxCell>
        <mxCell id="DW18cme_nGdW0s91hkWa-30" style="edgeStyle=none;rounded=0;orthogonalLoop=1;jettySize=auto;html=1;entryX=0;entryY=0.5;entryDx=0;entryDy=0;endArrow=none;endFill=0;" edge="1" parent="1" source="DW18cme_nGdW0s91hkWa-3" target="DW18cme_nGdW0s91hkWa-24">
          <mxGeometry relative="1" as="geometry" />
        </mxCell>
        <mxCell id="DW18cme_nGdW0s91hkWa-31" style="edgeStyle=none;rounded=0;orthogonalLoop=1;jettySize=auto;html=1;entryX=0;entryY=0.5;entryDx=0;entryDy=0;endArrow=none;endFill=0;" edge="1" parent="1" source="DW18cme_nGdW0s91hkWa-3" target="DW18cme_nGdW0s91hkWa-25">
          <mxGeometry relative="1" as="geometry" />
        </mxCell>
        <mxCell id="DW18cme_nGdW0s91hkWa-3" value="Instructor" style="shape=umlActor;verticalLabelPosition=bottom;verticalAlign=top;html=1;outlineConnect=0;" vertex="1" parent="1">
          <mxGeometry x="130" y="590" width="30" height="60" as="geometry" />
        </mxCell>
        <mxCell id="DW18cme_nGdW0s91hkWa-6" value="Login" style="ellipse;whiteSpace=wrap;html=1;" vertex="1" parent="1">
          <mxGeometry x="314.99" y="390" width="76.67" height="40" as="geometry" />
        </mxCell>
        <mxCell id="DW18cme_nGdW0s91hkWa-7" value="Edit user account" style="ellipse;whiteSpace=wrap;html=1;" vertex="1" parent="1">
          <mxGeometry x="401.65999999999997" y="340" width="120" height="50" as="geometry" />
        </mxCell>
        <mxCell id="DW18cme_nGdW0s91hkWa-8" value="View registered course" style="ellipse;whiteSpace=wrap;html=1;" vertex="1" parent="1">
          <mxGeometry x="369.99999999999994" y="180" width="161.66" height="50" as="geometry" />
        </mxCell>
        <mxCell id="DW18cme_nGdW0s91hkWa-9" value="View grade points" style="ellipse;whiteSpace=wrap;html=1;" vertex="1" parent="1">
          <mxGeometry x="379.99999999999994" y="240" width="161.66" height="50" as="geometry" />
        </mxCell>
        <mxCell id="DW18cme_nGdW0s91hkWa-10" value="Register for a course" style="ellipse;whiteSpace=wrap;html=1;" vertex="1" parent="1">
          <mxGeometry x="379.99999999999994" y="120" width="161.66" height="50" as="geometry" />
        </mxCell>
        <mxCell id="DW18cme_nGdW0s91hkWa-11" value="Add course" style="ellipse;whiteSpace=wrap;html=1;" vertex="1" parent="1">
          <mxGeometry x="631.99" y="160" width="129.33" height="40" as="geometry" />
        </mxCell>
        <mxCell id="DW18cme_nGdW0s91hkWa-24" value="View students" style="ellipse;whiteSpace=wrap;html=1;" vertex="1" parent="1">
          <mxGeometry x="386.99" y="480" width="129.33" height="40" as="geometry" />
        </mxCell>
        <mxCell id="DW18cme_nGdW0s91hkWa-25" value="Submit grade" style="ellipse;whiteSpace=wrap;html=1;" vertex="1" parent="1">
          <mxGeometry x="382.33" y="540" width="129.33" height="40" as="geometry" />
        </mxCell>
        <mxCell id="DW18cme_nGdW0s91hkWa-26" value="Add users" style="ellipse;whiteSpace=wrap;html=1;" vertex="1" parent="1">
          <mxGeometry x="392.33" y="610" width="129.33" height="40" as="geometry" />
        </mxCell>
        <mxCell id="DW18cme_nGdW0s91hkWa-27" value="Enroll students" style="ellipse;whiteSpace=wrap;html=1;" vertex="1" parent="1">
          <mxGeometry x="391.66" y="660" width="129.33" height="40" as="geometry" />
        </mxCell>
        <mxCell id="DW18cme_nGdW0s91hkWa-32" value="Display departments" style="ellipse;whiteSpace=wrap;html=1;" vertex="1" parent="1">
          <mxGeometry x="391.66" y="710" width="129.33" height="40" as="geometry" />
        </mxCell>
        <mxCell id="DW18cme_nGdW0s91hkWa-33" value="Display courses" style="ellipse;whiteSpace=wrap;html=1;" vertex="1" parent="1">
          <mxGeometry x="391.66" y="760" width="129.33" height="40" as="geometry" />
        </mxCell>
        <mxCell id="DW18cme_nGdW0s91hkWa-34" value="Add courses" style="ellipse;whiteSpace=wrap;html=1;" vertex="1" parent="1">
          <mxGeometry x="391.66" y="810" width="129.33" height="40" as="geometry" />
        </mxCell>
        <mxCell id="DW18cme_nGdW0s91hkWa-35" value="Edit courses" style="ellipse;whiteSpace=wrap;html=1;" vertex="1" parent="1">
          <mxGeometry x="391.66" y="870" width="129.33" height="40" as="geometry" />
        </mxCell>
        <mxCell id="DW18cme_nGdW0s91hkWa-40" value="Drop course" style="ellipse;whiteSpace=wrap;html=1;" vertex="1" parent="1">
          <mxGeometry x="631.99" y="220" width="129.33" height="40" as="geometry" />
        </mxCell>
      </root>
    </mxGraphModel>
  </diagram>
  <diagram id="fIva-CemAb0Nq6mGQ5WD" name="Class diagram">
    <mxGraphModel dx="868" dy="627" grid="1" gridSize="10" guides="1" tooltips="1" connect="1" arrows="1" fold="1" page="1" pageScale="1" pageWidth="850" pageHeight="1100" math="0" shadow="0">
      <root>
        <mxCell id="0" />
        <mxCell id="1" parent="0" />
      </root>
    </mxGraphModel>
  </diagram>
</mxfile>
